<svg width="598" height="761" xmlns="http://www.w3.org/2000/svg" xmlns:xlink="http://www.w3.org/1999/xlink" xml:space="preserve" overflow="hidden"><g transform="translate(-928 -1446)"><path d="M1201.96 1512.03C1210.01 1495.29 1230.11 1488.24 1246.86 1496.29L1505.16 1620.51C1521.9 1628.56 1528.95 1648.66 1520.9 1665.4L1424.6 1865.65C1416.55 1882.39 1396.45 1889.44 1379.71 1881.39L1121.4 1757.17C1104.66 1749.12 1097.61 1729.02 1105.66 1712.27Z" fill="#FFFFFF" fill-rule="evenodd"/><path d="M1207.75 1495.82C1228.29 1486.13 1252.8 1494.93 1262.49 1515.47L1378.38 1761.15C1388.07 1781.7 1379.27 1806.21 1358.73 1815.9L1102.8 1936.62C1082.26 1946.31 1057.75 1937.52 1048.06 1916.97L932.166 1671.29C922.476 1650.75 931.273 1626.24 951.816 1616.55Z" fill="#FFFFFF" fill-rule="evenodd"/><path d="M928 1656.14C928 1633.42 946.418 1615 969.138 1615L1240.86 1615C1263.58 1615 1282 1633.42 1282 1656.14L1282 1995.86C1282 2018.58 1263.58 2037 1240.86 2037L969.138 2037C946.418 2037 928 2018.58 928 1995.86Z" fill="#FFFFFF" fill-rule="evenodd"/><path d="M1172 1657.14C1172 1634.42 1190.42 1616 1213.14 1616L1484.86 1616C1507.58 1616 1526 1634.42 1526 1657.14L1526 1995.86C1526 2018.58 1507.58 2037 1484.86 2037L1213.14 2037C1190.42 2037 1172 2018.58 1172 1995.86Z" fill="#FFFFFF" fill-rule="evenodd"/><path d="M1029.51 1786.82C1037.56 1770.08 1057.66 1763.03 1074.4 1771.09L1332.71 1895.3C1349.45 1903.35 1356.5 1923.45 1348.45 1940.2L1252.15 2140.44C1244.1 2157.18 1224 2164.23 1207.26 2156.18L948.952 2031.96C932.208 2023.91 925.162 2003.81 933.214 1987.07Z" fill="#FFFFFF" fill-rule="evenodd"/><path d="M1348.48 1714.99C1369.02 1705.3 1393.53 1714.09 1403.22 1734.64L1519.11 1980.32C1528.8 2000.86 1520 2025.37 1499.46 2035.06L1243.53 2155.79C1222.99 2165.48 1198.48 2156.68 1188.79 2136.14L1072.9 1890.45C1063.21 1869.91 1072 1845.4 1092.55 1835.71Z" fill="#FFFFFF" fill-rule="evenodd"/><path d="M1257.5 1654C1257.5 1647.1 1263.1 1641.5 1270 1641.5L1320 1641.5C1326.9 1641.5 1332.5 1647.1 1332.5 1654L1332.5 1832C1332.5 1838.9 1326.9 1844.5 1320 1844.5L1270 1844.5C1263.1 1844.5 1257.5 1838.9 1257.5 1832Z" stroke="#595959" stroke-width="20.625" stroke-miterlimit="8" fill="none" fill-rule="evenodd"/><path d="M1128.5 1815.67C1128.5 1809.5 1133.5 1804.5 1139.67 1804.5L1184.33 1804.5C1190.5 1804.5 1195.5 1809.5 1195.5 1815.67L1195.5 1995.33C1195.5 2001.5 1190.5 2006.5 1184.33 2006.5L1139.67 2006.5C1133.5 2006.5 1128.5 2001.5 1128.5 1995.33Z" stroke="#595959" stroke-width="20.625" stroke-miterlimit="8" fill="none" fill-rule="evenodd"/><path d="M1257.5 1904.17C1257.5 1898.83 1261.83 1894.5 1267.17 1894.5L1389.83 1894.5C1395.17 1894.5 1399.5 1898.83 1399.5 1904.17L1399.5 1942.83C1399.5 1948.17 1395.17 1952.5 1389.83 1952.5L1267.17 1952.5C1261.83 1952.5 1257.5 1948.17 1257.5 1942.83Z" stroke="#595959" stroke-width="20.625" stroke-miterlimit="8" fill="none" fill-rule="evenodd"/><path d="M1054.5 1706.83C1054.5 1701.68 1058.68 1697.5 1063.83 1697.5L1187.17 1697.5C1192.32 1697.5 1196.5 1701.68 1196.5 1706.83L1196.5 1744.17C1196.5 1749.32 1192.32 1753.5 1187.17 1753.5L1063.83 1753.5C1058.68 1753.5 1054.5 1749.32 1054.5 1744.17Z" stroke="#595959" stroke-width="20.625" stroke-miterlimit="8" fill="none" fill-rule="evenodd"/><path d="M0 0 365.018 172.789" stroke="#FFFFFF" stroke-width="4.58333" stroke-miterlimit="8" fill="none" fill-rule="evenodd" transform="matrix(1 0 0 -1 948.5 1621.29)"/><path d="M0 0 365.018 172.789" stroke="#FFFFFF" stroke-width="4.58333" stroke-miterlimit="8" fill="none" fill-rule="evenodd" transform="matrix(1 0 0 -1 1137.5 2204.29)"/></g></svg>